<svg xmlns="http://www.w3.org/2000/svg" width="10" height="10" viewBox="0 0 10 10">
<path
		d="M6.84498 2.37553C7.11245 2.37553 7.33624 2.15543 7.33624 1.88031V0.620227C7.33624 0.350604 7.1179 0.125 6.84498 0.125C6.57205 0.125 6.35371 0.345101 6.35371 0.620227V1.88581C6.35371 2.15543 6.57205 2.37553 6.84498 2.37553Z"
	/>
<path
		d="M8.56441 0.768796H7.74018V1.75375H8.56441C8.8155 1.75375 9.02293 1.99586 9.02293 2.293V2.85425H0.977074V2.293C0.977074 1.99586 1.1845 1.75375 1.43559 1.75375H2.25983V0.768796H1.43559C0.644105 0.768796 0 1.45111 0 2.293V8.4008C0 9.24269 0.644105 9.925 1.43559 9.925H8.56441C9.3559 9.925 10 9.24269 10 8.4008V2.293C10 1.45111 9.3559 0.768796 8.56441 0.768796ZM9.02293 3.83921V8.4008C9.02293 8.69794 8.8155 8.94005 8.56441 8.94005H1.43559C1.1845 8.94005 0.977074 8.69794 0.977074 8.4008V3.83921H9.02293Z"
	/>
<path d="M5.94978 0.768796H4.05568V1.75375H5.94978V0.768796Z" />
<path
		d="M3.16048 2.37553C3.42795 2.37553 3.65175 2.15543 3.65175 1.88031V0.620227C3.65175 0.350604 3.43341 0.125 3.16048 0.125C2.88755 0.125 2.66921 0.345101 2.66921 0.620227V1.88581C2.66921 2.15543 2.88755 2.37553 3.16048 2.37553Z"
	/>
</svg>
